<svg width="16" height="16" viewBox="0 0 16 16" fill="none" xmlns="http://www.w3.org/2000/svg">
<rect width="16" height="16" fill="white" fill-opacity="0.01"/>
<path fill-rule="evenodd" clip-rule="evenodd" d="M3.2002 2.6667C3.2002 2.37215 3.43898 2.13336 3.73353 2.13336H12.2669C12.5614 2.13336 12.8002 2.37215 12.8002 2.6667V14.4C12.8002 14.5939 12.695 14.7725 12.5254 14.8665C12.3558 14.9605 12.1486 14.955 11.9842 14.8523L8.0002 12.3623L4.0162 14.8523C3.85179 14.955 3.64456 14.9605 3.47499 14.8665C3.30541 14.7725 3.2002 14.5939 3.2002 14.4V2.6667ZM4.26686 3.20003V13.4378L7.43486 11.4577C7.78075 11.2416 8.21964 11.2416 8.56553 11.4577L11.7335 13.4378V3.20003H4.26686Z" fill="#1D211C"/>
</svg>
