<svg width="18" height="18" viewBox="0 0 18 18" fill="none" xmlns="http://www.w3.org/2000/svg">
<rect width="18" height="18" fill="white" fill-opacity="0.01"/>
<path fill-rule="evenodd" clip-rule="evenodd" d="M5.4002 1.19995C5.73156 1.19995 6.0002 1.46858 6.0002 1.79995V2.39995H12.0002V1.79995C12.0002 1.46858 12.2689 1.19995 12.6002 1.19995C12.9315 1.19995 13.2002 1.46858 13.2002 1.79995V2.39995H15.0002C15.9943 2.39995 16.8002 3.20584 16.8002 4.19995V15C16.8002 15.994 15.9943 16.8 15.0002 16.8H3.0002C2.00608 16.8 1.2002 15.994 1.2002 15V4.19995C1.2002 3.20584 2.00608 2.39995 3.0002 2.39995H4.8002V1.79995C4.8002 1.46858 5.06883 1.19995 5.4002 1.19995ZM12.0002 3.59995V4.19995C12.0002 4.53132 12.2689 4.79995 12.6002 4.79995C12.9315 4.79995 13.2002 4.53132 13.2002 4.19995V3.59995H15.0002C15.3315 3.59995 15.6002 3.86858 15.6002 4.19995V5.99995H2.4002V4.19995C2.4002 3.86858 2.66883 3.59995 3.0002 3.59995H4.8002V4.19995C4.8002 4.53132 5.06883 4.79995 5.4002 4.79995C5.73156 4.79995 6.0002 4.53132 6.0002 4.19995V3.59995H12.0002ZM2.4002 7.19995V15C2.4002 15.3313 2.66883 15.6 3.0002 15.6H15.0002C15.3315 15.6 15.6002 15.3313 15.6002 15V7.19995H2.4002ZM8.4002 8.99995C8.4002 8.66858 8.66883 8.39995 9.0002 8.39995C9.33156 8.39995 9.6002 8.66858 9.6002 8.99995C9.6002 9.33132 9.33156 9.59995 9.0002 9.59995C8.66883 9.59995 8.4002 9.33132 8.4002 8.99995ZM11.4002 8.39995C11.0688 8.39995 10.8002 8.66858 10.8002 8.99995C10.8002 9.33132 11.0688 9.59995 11.4002 9.59995C11.7316 9.59995 12.0002 9.33132 12.0002 8.99995C12.0002 8.66858 11.7316 8.39995 11.4002 8.39995ZM13.2002 8.99995C13.2002 8.66858 13.4689 8.39995 13.8002 8.39995C14.1315 8.39995 14.4002 8.66858 14.4002 8.99995C14.4002 9.33132 14.1315 9.59995 13.8002 9.59995C13.4689 9.59995 13.2002 9.33132 13.2002 8.99995ZM13.8002 10.8C13.4689 10.8 13.2002 11.0686 13.2002 11.4C13.2002 11.7313 13.4689 12 13.8002 12C14.1315 12 14.4002 11.7313 14.4002 11.4C14.4002 11.0686 14.1315 10.8 13.8002 10.8ZM10.8002 11.4C10.8002 11.0686 11.0688 10.8 11.4002 10.8C11.7316 10.8 12.0002 11.0686 12.0002 11.4C12.0002 11.7313 11.7316 12 11.4002 12C11.0688 12 10.8002 11.7313 10.8002 11.4ZM9.0002 10.8C8.66883 10.8 8.4002 11.0686 8.4002 11.4C8.4002 11.7313 8.66883 12 9.0002 12C9.33156 12 9.6002 11.7313 9.6002 11.4C9.6002 11.0686 9.33156 10.8 9.0002 10.8ZM6.0002 11.4C6.0002 11.0686 6.26883 10.8 6.6002 10.8C6.93156 10.8 7.2002 11.0686 7.2002 11.4C7.2002 11.7313 6.93156 12 6.6002 12C6.26883 12 6.0002 11.7313 6.0002 11.4ZM4.2002 10.8C3.86883 10.8 3.6002 11.0686 3.6002 11.4C3.6002 11.7313 3.86883 12 4.2002 12C4.53156 12 4.8002 11.7313 4.8002 11.4C4.8002 11.0686 4.53156 10.8 4.2002 10.8ZM3.6002 13.8C3.6002 13.4686 3.86883 13.2 4.2002 13.2C4.53156 13.2 4.8002 13.4686 4.8002 13.8C4.8002 14.1313 4.53156 14.4 4.2002 14.4C3.86883 14.4 3.6002 14.1313 3.6002 13.8ZM6.6002 13.2C6.26883 13.2 6.0002 13.4686 6.0002 13.8C6.0002 14.1313 6.26883 14.4 6.6002 14.4C6.93156 14.4 7.2002 14.1313 7.2002 13.8C7.2002 13.4686 6.93156 13.2 6.6002 13.2ZM8.4002 13.8C8.4002 13.4686 8.66883 13.2 9.0002 13.2C9.33156 13.2 9.6002 13.4686 9.6002 13.8C9.6002 14.1313 9.33156 14.4 9.0002 14.4C8.66883 14.4 8.4002 14.1313 8.4002 13.8ZM11.4002 13.2C11.0688 13.2 10.8002 13.4686 10.8002 13.8C10.8002 14.1313 11.0688 14.4 11.4002 14.4C11.7316 14.4 12.0002 14.1313 12.0002 13.8C12.0002 13.4686 11.7316 13.2 11.4002 13.2Z" fill="#ECEEEC"/>
</svg>
