<svg width="16" height="16" viewBox="0 0 16 16" fill="none" xmlns="http://www.w3.org/2000/svg">
<rect width="16" height="16" fill="white" fill-opacity="0.01"/>
<path fill-rule="evenodd" clip-rule="evenodd" d="M4.80023 1.06665C5.09478 1.06665 5.33356 1.30543 5.33356 1.59998V2.13332H10.6669V1.59998C10.6669 1.30543 10.9057 1.06665 11.2002 1.06665C11.4947 1.06665 11.7336 1.30543 11.7336 1.59998V2.13332H13.3336C14.2172 2.13332 14.9336 2.84966 14.9336 3.73332V13.3333C14.9336 14.2169 14.2172 14.9333 13.3336 14.9333H2.66689C1.78324 14.9333 1.06689 14.2169 1.06689 13.3333V3.73332C1.06689 2.84966 1.78324 2.13332 2.66689 2.13332H4.26689V1.59998C4.26689 1.30543 4.50568 1.06665 4.80023 1.06665ZM10.6669 3.19998V3.73332C10.6669 4.02787 10.9057 4.26665 11.2002 4.26665C11.4947 4.26665 11.7336 4.02787 11.7336 3.73332V3.19998H13.3336C13.6281 3.19998 13.8669 3.43877 13.8669 3.73332V5.33332H2.13356V3.73332C2.13356 3.43877 2.37235 3.19998 2.66689 3.19998H4.26689V3.73332C4.26689 4.02787 4.50568 4.26665 4.80023 4.26665C5.09478 4.26665 5.33356 4.02787 5.33356 3.73332V3.19998H10.6669ZM2.13356 6.39998V13.3333C2.13356 13.6278 2.37235 13.8667 2.66689 13.8667H13.3336C13.6281 13.8667 13.8669 13.6278 13.8669 13.3333V6.39998H2.13356ZM7.4669 7.99998C7.4669 7.70543 7.70568 7.46665 8.00023 7.46665C8.29478 7.46665 8.53356 7.70543 8.53356 7.99998C8.53356 8.29453 8.29478 8.53332 8.00023 8.53332C7.70568 8.53332 7.4669 8.29453 7.4669 7.99998ZM10.1336 7.46665C9.83901 7.46665 9.60023 7.70543 9.60023 7.99998C9.60023 8.29453 9.83901 8.53332 10.1336 8.53332C10.4281 8.53332 10.6669 8.29453 10.6669 7.99998C10.6669 7.70543 10.4281 7.46665 10.1336 7.46665ZM11.7336 7.99998C11.7336 7.70543 11.9724 7.46665 12.2669 7.46665C12.5614 7.46665 12.8002 7.70543 12.8002 7.99998C12.8002 8.29453 12.5614 8.53332 12.2669 8.53332C11.9724 8.53332 11.7336 8.29453 11.7336 7.99998ZM12.2669 9.59998C11.9724 9.59998 11.7336 9.83877 11.7336 10.1333C11.7336 10.4279 11.9724 10.6667 12.2669 10.6667C12.5614 10.6667 12.8002 10.4279 12.8002 10.1333C12.8002 9.83877 12.5614 9.59998 12.2669 9.59998ZM9.60023 10.1333C9.60023 9.83877 9.83901 9.59998 10.1336 9.59998C10.4281 9.59998 10.6669 9.83877 10.6669 10.1333C10.6669 10.4279 10.4281 10.6667 10.1336 10.6667C9.83901 10.6667 9.60023 10.4279 9.60023 10.1333ZM8.00023 9.59998C7.70568 9.59998 7.4669 9.83877 7.4669 10.1333C7.4669 10.4279 7.70568 10.6667 8.00023 10.6667C8.29478 10.6667 8.53356 10.4279 8.53356 10.1333C8.53356 9.83877 8.29478 9.59998 8.00023 9.59998ZM5.33356 10.1333C5.33356 9.83877 5.57235 9.59998 5.86689 9.59998C6.16144 9.59998 6.40023 9.83877 6.40023 10.1333C6.40023 10.4279 6.16144 10.6667 5.86689 10.6667C5.57235 10.6667 5.33356 10.4279 5.33356 10.1333ZM3.73356 9.59998C3.43901 9.59998 3.20023 9.83877 3.20023 10.1333C3.20023 10.4279 3.43901 10.6667 3.73356 10.6667C4.02811 10.6667 4.26689 10.4279 4.26689 10.1333C4.26689 9.83877 4.02811 9.59998 3.73356 9.59998ZM3.20023 12.2667C3.20023 11.9721 3.43901 11.7333 3.73356 11.7333C4.02811 11.7333 4.26689 11.9721 4.26689 12.2667C4.26689 12.5612 4.02811 12.8 3.73356 12.8C3.43901 12.8 3.20023 12.5612 3.20023 12.2667ZM5.86689 11.7333C5.57235 11.7333 5.33356 11.9721 5.33356 12.2667C5.33356 12.5612 5.57235 12.8 5.86689 12.8C6.16144 12.8 6.40023 12.5612 6.40023 12.2667C6.40023 11.9721 6.16144 11.7333 5.86689 11.7333ZM7.4669 12.2667C7.4669 11.9721 7.70568 11.7333 8.00023 11.7333C8.29478 11.7333 8.53356 11.9721 8.53356 12.2667C8.53356 12.5612 8.29478 12.8 8.00023 12.8C7.70568 12.8 7.4669 12.5612 7.4669 12.2667ZM10.1336 11.7333C9.83901 11.7333 9.60023 11.9721 9.60023 12.2667C9.60023 12.5612 9.83901 12.8 10.1336 12.8C10.4281 12.8 10.6669 12.5612 10.6669 12.2667C10.6669 11.9721 10.4281 11.7333 10.1336 11.7333Z" fill="#040E00" fill-opacity="0.509804"/>
</svg>
