<svg width="18" height="18" viewBox="0 0 18 18" fill="none" xmlns="http://www.w3.org/2000/svg">
<rect width="18" height="18" fill="white" fill-opacity="0.01"/>
<path fill-rule="evenodd" clip-rule="evenodd" d="M9.00007 2.16007C5.22245 2.16007 2.16007 5.22245 2.16007 9.00007C2.16007 12.7776 5.22245 15.84 9.00007 15.84C12.7777 15.84 15.8401 12.7776 15.8401 9.00007C15.8401 5.22245 12.7777 2.16007 9.00007 2.16007ZM1.08008 9.00007C1.08008 4.62598 4.62598 1.08008 9.00007 1.08008C13.3741 1.08008 16.9201 4.62598 16.9201 9.00007C16.9201 13.3742 13.3741 16.92 9.00007 16.92C4.62598 16.92 1.08008 13.3742 1.08008 9.00007Z" fill="#ECEEEC"/>
<path fill-rule="evenodd" clip-rule="evenodd" d="M16.1998 9.48002H1.7998V8.52002H16.1998V9.48002Z" fill="white"/>
<path fill-rule="evenodd" clip-rule="evenodd" d="M8.52007 16.2V1.79997H9.48007V16.2H8.52007ZM12.4502 8.99995C12.4502 6.39266 11.5125 3.81331 9.67437 2.10785L10.2457 1.49207C12.2877 3.38659 13.2902 6.20725 13.2902 8.99995C13.2902 11.7927 12.2877 14.6133 10.2457 16.5079L9.67437 15.8921C11.5125 14.1866 12.4502 11.6072 12.4502 8.99995ZM4.7998 8.99997C4.7998 6.21131 5.76961 3.39211 7.74939 1.4966L8.3303 2.10335C6.55002 3.80785 5.6398 6.38864 5.6398 8.99997C5.63982 11.6113 6.55004 14.1921 8.33032 15.8966L7.7494 16.5033C5.76963 14.6078 4.79982 11.7887 4.7998 8.99997Z" fill="white"/>
<path fill-rule="evenodd" clip-rule="evenodd" d="M9.00032 4.74963C11.6035 4.74963 14.2507 5.231 16.0451 6.2334C16.2476 6.34652 16.3201 6.60239 16.207 6.8049C16.0939 7.0074 15.838 7.07987 15.6355 6.96674C14.0156 6.06188 11.53 5.58963 9.00032 5.58963C6.47067 5.58963 3.98499 6.06188 2.36513 6.96674C2.16262 7.07987 1.90676 7.0074 1.79363 6.8049C1.68052 6.60239 1.75298 6.34652 1.95549 6.2334C3.74996 5.231 6.39712 4.74963 9.00032 4.74963ZM9.00032 13.02C11.6035 13.02 14.2507 12.5386 16.0451 11.5362C16.2476 11.4231 16.3201 11.1672 16.207 10.9647C16.0939 10.7622 15.838 10.6898 15.6355 10.8029C14.0156 11.7077 11.53 12.18 9.00032 12.18C6.47067 12.18 3.98499 11.7077 2.36513 10.8029C2.16262 10.6898 1.90676 10.7622 1.79363 10.9647C1.68052 11.1672 1.75298 11.4231 1.95549 11.5362C3.74996 12.5386 6.39712 13.02 9.00032 13.02Z" fill="white"/>
</svg>
