<svg width="16" height="20" viewBox="0 0 16 20" fill="none" xmlns="http://www.w3.org/2000/svg">
<rect width="16" height="16" transform="translate(0 2)" fill="white" fill-opacity="0.01"/>
<path fill-rule="evenodd" clip-rule="evenodd" d="M7.9999 2.93536C4.09837 2.93536 0.935547 6.09819 0.935547 9.99971C0.935547 13.9012 4.09837 17.0641 7.9999 17.0641C11.9014 17.0641 15.0642 13.9012 15.0642 9.99971C15.0642 6.09819 11.9014 2.93536 7.9999 2.93536ZM1.94887 9.99971C1.94887 6.65784 4.65802 3.9487 7.9999 3.9487C11.3418 3.9487 14.0509 6.65784 14.0509 9.99971C14.0509 13.3416 11.3418 16.0508 7.9999 16.0508C4.65802 16.0508 1.94887 13.3416 1.94887 9.99971ZM8.79991 6.8C8.79991 7.24183 8.44174 7.6 7.99991 7.6C7.55809 7.6 7.19991 7.24183 7.19991 6.8C7.19991 6.35817 7.55809 6 7.99991 6C8.44174 6 8.79991 6.35817 8.79991 6.8ZM6.40003 8.4H6.93336H8.00003C8.29459 8.4 8.53336 8.63878 8.53336 8.93334V12.6667H9.0667H9.60003V13.7333H9.0667H8.00003H6.93336H6.40003V12.6667H6.93336H7.4667V9.46667H6.93336H6.40003V8.4Z" fill="#C40006" fill-opacity="0.827451"/>
</svg>
