<svg width="24" height="13" viewBox="0 0 24 13" fill="none" xmlns="http://www.w3.org/2000/svg">
<path d="M2.99783 12.2614C2.54707 12.2614 2.13419 12.1515 1.75919 11.9318C1.38419 11.7083 1.08495 11.4091 0.861461 11.0341C0.641764 10.6591 0.531916 10.2462 0.531916 9.79545C0.531916 9.34091 0.641764 8.92614 0.861461 8.55114C1.08495 8.17614 1.38419 7.87689 1.75919 7.65341C2.13419 7.42992 2.54707 7.31818 2.99783 7.31818H4.31601V5.03409H2.99783C2.54707 5.03409 2.13419 4.92424 1.75919 4.70455C1.38419 4.48106 1.08495 4.18371 0.861461 3.8125C0.641764 3.4375 0.531916 3.02273 0.531916 2.56818C0.531916 2.11364 0.641764 1.70076 0.861461 1.32955C1.08495 0.954545 1.38419 0.657197 1.75919 0.4375C2.13419 0.214015 2.54707 0.102272 2.99783 0.102272C3.45237 0.102272 3.86714 0.214015 4.24214 0.4375C4.61714 0.657197 4.91639 0.954545 5.13987 1.32955C5.36336 1.70076 5.4751 2.11364 5.4751 2.56818V3.875H7.75919V2.56818C7.75919 2.11364 7.86904 1.70076 8.08873 1.32955C8.31222 0.954545 8.60957 0.657197 8.98078 0.4375C9.35578 0.214015 9.77055 0.102272 10.2251 0.102272C10.6796 0.102272 11.0925 0.214015 11.4637 0.4375C11.8387 0.657197 12.1361 0.954545 12.3558 1.32955C12.5793 1.70076 12.691 2.11364 12.691 2.56818C12.691 3.02273 12.5793 3.4375 12.3558 3.8125C12.1361 4.18371 11.8387 4.48106 11.4637 4.70455C11.0925 4.92424 10.6796 5.03409 10.2251 5.03409H8.91828V7.31818H10.2251C10.6796 7.31818 11.0925 7.42992 11.4637 7.65341C11.8387 7.87689 12.1361 8.17614 12.3558 8.55114C12.5793 8.92614 12.691 9.34091 12.691 9.79545C12.691 10.2462 12.5793 10.6591 12.3558 11.0341C12.1361 11.4091 11.8387 11.7083 11.4637 11.9318C11.0925 12.1515 10.6796 12.2614 10.2251 12.2614C9.77055 12.2614 9.35578 12.1515 8.98078 11.9318C8.60957 11.7083 8.31222 11.4091 8.08873 11.0341C7.86904 10.6591 7.75919 10.2462 7.75919 9.79545V8.47727H5.4751V9.79545C5.4751 10.2462 5.36336 10.6591 5.13987 11.0341C4.91639 11.4091 4.61714 11.7083 4.24214 11.9318C3.86714 12.1515 3.45237 12.2614 2.99783 12.2614ZM2.99783 11.1023C3.24025 11.1023 3.45995 11.0436 3.65692 10.9261C3.85767 10.8087 4.01676 10.6515 4.13419 10.4545C4.2554 10.2538 4.31601 10.0341 4.31601 9.79545V8.47727H2.99783C2.75919 8.47727 2.53949 8.53788 2.33873 8.65909C2.14176 8.77652 1.98457 8.93561 1.86714 9.13636C1.74972 9.33333 1.69101 9.55303 1.69101 9.79545C1.69101 10.0341 1.74972 10.2538 1.86714 10.4545C1.98457 10.6515 2.14176 10.8087 2.33873 10.9261C2.53949 11.0436 2.75919 11.1023 2.99783 11.1023ZM2.99783 3.875H4.31601V2.56818C4.31601 2.32576 4.2554 2.10606 4.13419 1.90909C4.01676 1.71212 3.85767 1.55492 3.65692 1.4375C3.45995 1.32008 3.24025 1.26136 2.99783 1.26136C2.75919 1.26136 2.53949 1.32008 2.33873 1.4375C2.14176 1.55492 1.98457 1.71212 1.86714 1.90909C1.74972 2.10606 1.69101 2.32576 1.69101 2.56818C1.69101 2.81061 1.74972 3.0322 1.86714 3.23295C1.98457 3.42992 2.14176 3.58712 2.33873 3.70455C2.53949 3.81818 2.75919 3.875 2.99783 3.875ZM8.91828 3.875H10.2251C10.4675 3.875 10.6872 3.81818 10.8842 3.70455C11.0812 3.58712 11.2384 3.42992 11.3558 3.23295C11.4732 3.0322 11.5319 2.81061 11.5319 2.56818C11.5319 2.32576 11.4732 2.10606 11.3558 1.90909C11.2384 1.71212 11.0812 1.55492 10.8842 1.4375C10.6872 1.32008 10.4675 1.26136 10.2251 1.26136C9.98267 1.26136 9.76108 1.32008 9.56033 1.4375C9.36336 1.55492 9.20616 1.71212 9.08873 1.90909C8.9751 2.10606 8.91828 2.32576 8.91828 2.56818V3.875ZM10.2251 11.1023C10.4675 11.1023 10.6872 11.0436 10.8842 10.9261C11.0812 10.8087 11.2384 10.6515 11.3558 10.4545C11.4732 10.2538 11.5319 10.0341 11.5319 9.79545C11.5319 9.55303 11.4732 9.33333 11.3558 9.13636C11.2384 8.93561 11.0812 8.77652 10.8842 8.65909C10.6872 8.53788 10.4675 8.47727 10.2251 8.47727H8.91828V9.79545C8.91828 10.0341 8.9751 10.2538 9.08873 10.4545C9.20616 10.6515 9.36336 10.8087 9.56033 10.9261C9.76108 11.0436 9.98267 11.1023 10.2251 11.1023ZM5.4751 7.31818H7.75919V5.03409H5.4751V7.31818ZM22.3885 3.27273C22.3203 2.69697 22.0438 2.25 21.5589 1.93182C21.0741 1.61364 20.4794 1.45455 19.7748 1.45455C19.2597 1.45455 18.8089 1.53788 18.4225 1.70455C18.04 1.87121 17.7407 2.10038 17.5248 2.39205C17.3127 2.68371 17.2066 3.01515 17.2066 3.38636C17.2066 3.69697 17.2805 3.96401 17.4282 4.1875C17.5797 4.4072 17.7729 4.59091 18.0078 4.73864C18.2426 4.88258 18.4888 5.00189 18.7464 5.09659C19.004 5.1875 19.2407 5.26136 19.4566 5.31818L20.6385 5.63636C20.9415 5.71591 21.2786 5.82576 21.6498 5.96591C22.0248 6.10606 22.3828 6.29735 22.7237 6.53977C23.0684 6.77841 23.3525 7.08523 23.576 7.46023C23.7994 7.83523 23.9112 8.29545 23.9112 8.84091C23.9112 9.4697 23.7464 10.0379 23.4169 10.5455C23.0911 11.053 22.6138 11.4564 21.985 11.7557C21.36 12.0549 20.6006 12.2045 19.7066 12.2045C18.8733 12.2045 18.1517 12.0701 17.5419 11.8011C16.9358 11.5322 16.4585 11.1572 16.11 10.6761C15.7653 10.1951 15.5703 9.63636 15.5248 9H16.9794C17.0172 9.43939 17.165 9.80303 17.4225 10.0909C17.6839 10.375 18.0135 10.5871 18.4112 10.7273C18.8127 10.8636 19.2445 10.9318 19.7066 10.9318C20.2445 10.9318 20.7275 10.8447 21.1555 10.6705C21.5835 10.4924 21.9225 10.2462 22.1725 9.93182C22.4225 9.61364 22.5475 9.24242 22.5475 8.81818C22.5475 8.43182 22.4396 8.11742 22.2237 7.875C22.0078 7.63258 21.7237 7.43561 21.3714 7.28409C21.0191 7.13258 20.6385 7 20.2294 6.88636L18.7975 6.47727C17.8885 6.21591 17.1688 5.8428 16.6384 5.35795C16.1081 4.87311 15.843 4.23864 15.843 3.45455C15.843 2.80303 16.0191 2.23485 16.3714 1.75C16.7275 1.26136 17.2047 0.882575 17.8032 0.613636C18.4055 0.340909 19.0778 0.204545 19.8203 0.204545C20.5703 0.204545 21.2369 0.339015 21.8203 0.607954C22.4036 0.873105 22.8657 1.23674 23.2066 1.69886C23.5513 2.16098 23.7331 2.68561 23.7521 3.27273H22.3885Z" fill="#1D211C"/>
</svg>
