<svg width="40" height="18" viewBox="0 0 40 18" fill="none" xmlns="http://www.w3.org/2000/svg">
<g clip-path="url(#clip0_3068_2276)">
<path d="M0.200195 4C0.200195 1.79086 1.99106 0 4.2002 0H36.0002C38.2093 0 40.0002 1.79086 40.0002 4V14C40.0002 16.2091 38.2093 18 36.0002 18H4.20019C1.99105 18 0.200195 16.2091 0.200195 14V4Z" fill="#111210"/>
<path d="M10.9983 15.2614C10.5476 15.2614 10.1347 15.1515 9.75968 14.9318C9.38468 14.7083 9.08543 14.4091 8.86195 14.0341C8.64225 13.6591 8.5324 13.2462 8.5324 12.7955C8.5324 12.3409 8.64225 11.9261 8.86195 11.5511C9.08543 11.1761 9.38468 10.8769 9.75968 10.6534C10.1347 10.4299 10.5476 10.3182 10.9983 10.3182H12.3165V8.03409H10.9983C10.5476 8.03409 10.1347 7.92424 9.75968 7.70455C9.38468 7.48106 9.08543 7.18371 8.86195 6.8125C8.64225 6.4375 8.5324 6.02273 8.5324 5.56818C8.5324 5.11364 8.64225 4.70076 8.86195 4.32955C9.08543 3.95455 9.38468 3.6572 9.75968 3.4375C10.1347 3.21401 10.5476 3.10227 10.9983 3.10227C11.4529 3.10227 11.8676 3.21401 12.2426 3.4375C12.6176 3.6572 12.9169 3.95455 13.1404 4.32955C13.3638 4.70076 13.4756 5.11364 13.4756 5.56818V6.875H15.7597V5.56818C15.7597 5.11364 15.8695 4.70076 16.0892 4.32955C16.3127 3.95455 16.6101 3.6572 16.9813 3.4375C17.3563 3.21401 17.771 3.10227 18.2256 3.10227C18.6801 3.10227 19.093 3.21401 19.4642 3.4375C19.8392 3.6572 20.1366 3.95455 20.3563 4.32955C20.5798 4.70076 20.6915 5.11364 20.6915 5.56818C20.6915 6.02273 20.5798 6.4375 20.3563 6.8125C20.1366 7.18371 19.8392 7.48106 19.4642 7.70455C19.093 7.92424 18.6801 8.03409 18.2256 8.03409H16.9188V10.3182H18.2256C18.6801 10.3182 19.093 10.4299 19.4642 10.6534C19.8392 10.8769 20.1366 11.1761 20.3563 11.5511C20.5798 11.9261 20.6915 12.3409 20.6915 12.7955C20.6915 13.2462 20.5798 13.6591 20.3563 14.0341C20.1366 14.4091 19.8392 14.7083 19.4642 14.9318C19.093 15.1515 18.6801 15.2614 18.2256 15.2614C17.771 15.2614 17.3563 15.1515 16.9813 14.9318C16.6101 14.7083 16.3127 14.4091 16.0892 14.0341C15.8695 13.6591 15.7597 13.2462 15.7597 12.7955V11.4773H13.4756V12.7955C13.4756 13.2462 13.3638 13.6591 13.1404 14.0341C12.9169 14.4091 12.6176 14.7083 12.2426 14.9318C11.8676 15.1515 11.4529 15.2614 10.9983 15.2614ZM10.9983 14.1023C11.2407 14.1023 11.4604 14.0436 11.6574 13.9261C11.8582 13.8087 12.0173 13.6515 12.1347 13.4545C12.2559 13.2538 12.3165 13.0341 12.3165 12.7955V11.4773H10.9983C10.7597 11.4773 10.54 11.5379 10.3392 11.6591C10.1423 11.7765 9.98506 11.9356 9.86763 12.1364C9.75021 12.3333 9.6915 12.553 9.6915 12.7955C9.6915 13.0341 9.75021 13.2538 9.86763 13.4545C9.98506 13.6515 10.1423 13.8087 10.3392 13.9261C10.54 14.0436 10.7597 14.1023 10.9983 14.1023ZM10.9983 6.875H12.3165V5.56818C12.3165 5.32576 12.2559 5.10606 12.1347 4.90909C12.0173 4.71212 11.8582 4.55492 11.6574 4.4375C11.4604 4.32008 11.2407 4.26136 10.9983 4.26136C10.7597 4.26136 10.54 4.32008 10.3392 4.4375C10.1423 4.55492 9.98506 4.71212 9.86763 4.90909C9.75021 5.10606 9.6915 5.32576 9.6915 5.56818C9.6915 5.81061 9.75021 6.0322 9.86763 6.23295C9.98506 6.42992 10.1423 6.58712 10.3392 6.70455C10.54 6.81818 10.7597 6.875 10.9983 6.875ZM16.9188 6.875H18.2256C18.468 6.875 18.6877 6.81818 18.8847 6.70455C19.0816 6.58712 19.2388 6.42992 19.3563 6.23295C19.4737 6.0322 19.5324 5.81061 19.5324 5.56818C19.5324 5.32576 19.4737 5.10606 19.3563 4.90909C19.2388 4.71212 19.0816 4.55492 18.8847 4.4375C18.6877 4.32008 18.468 4.26136 18.2256 4.26136C17.9832 4.26136 17.7616 4.32008 17.5608 4.4375C17.3638 4.55492 17.2066 4.71212 17.0892 4.90909C16.9756 5.10606 16.9188 5.32576 16.9188 5.56818V6.875ZM18.2256 14.1023C18.468 14.1023 18.6877 14.0436 18.8847 13.9261C19.0816 13.8087 19.2388 13.6515 19.3563 13.4545C19.4737 13.2538 19.5324 13.0341 19.5324 12.7955C19.5324 12.553 19.4737 12.3333 19.3563 12.1364C19.2388 11.9356 19.0816 11.7765 18.8847 11.6591C18.6877 11.5379 18.468 11.4773 18.2256 11.4773H16.9188V12.7955C16.9188 13.0341 16.9756 13.2538 17.0892 13.4545C17.2066 13.6515 17.3638 13.8087 17.5608 13.9261C17.7616 14.0436 17.9832 14.1023 18.2256 14.1023ZM13.4756 10.3182H15.7597V8.03409H13.4756V10.3182ZM30.3889 6.27273C30.3208 5.69697 30.0442 5.25 29.5594 4.93182C29.0745 4.61364 28.4798 4.45455 27.7753 4.45455C27.2602 4.45455 26.8094 4.53788 26.423 4.70455C26.0405 4.87121 25.7412 5.10038 25.5253 5.39205C25.3132 5.68371 25.2071 6.01515 25.2071 6.38636C25.2071 6.69697 25.281 6.96401 25.4287 7.1875C25.5802 7.4072 25.7734 7.59091 26.0083 7.73864C26.2431 7.88258 26.4893 8.00189 26.7469 8.09659C27.0045 8.1875 27.2412 8.26136 27.4571 8.31818L28.6389 8.63636C28.942 8.71591 29.2791 8.82576 29.6503 8.96591C30.0253 9.10606 30.3833 9.29735 30.7242 9.53977C31.0689 9.77841 31.353 10.0852 31.5764 10.4602C31.7999 10.8352 31.9117 11.2955 31.9117 11.8409C31.9117 12.4697 31.7469 13.0379 31.4173 13.5455C31.0916 14.053 30.6143 14.4564 29.9855 14.7557C29.3605 15.0549 28.6011 15.2045 27.7071 15.2045C26.8738 15.2045 26.1522 15.0701 25.5423 14.8011C24.9363 14.5322 24.459 14.1572 24.1105 13.6761C23.7658 13.1951 23.5708 12.6364 23.5253 12H24.9798C25.0177 12.4394 25.1655 12.803 25.423 13.0909C25.6844 13.375 26.0139 13.5871 26.4117 13.7273C26.8132 13.8636 27.245 13.9318 27.7071 13.9318C28.245 13.9318 28.728 13.8447 29.156 13.6705C29.584 13.4924 29.923 13.2462 30.173 12.9318C30.423 12.6136 30.548 12.2424 30.548 11.8182C30.548 11.4318 30.4401 11.1174 30.2242 10.875C30.0083 10.6326 29.7242 10.4356 29.3719 10.2841C29.0196 10.1326 28.6389 10 28.2298 9.88636L26.798 9.47727C25.8889 9.21591 25.1692 8.8428 24.6389 8.35795C24.1086 7.87311 23.8435 7.23864 23.8435 6.45455C23.8435 5.80303 24.0196 5.23485 24.3719 4.75C24.728 4.26136 25.2052 3.88258 25.8037 3.61364C26.406 3.34091 27.0783 3.20455 27.8208 3.20455C28.5708 3.20455 29.2374 3.33901 29.8208 3.60795C30.4041 3.87311 30.8662 4.23674 31.2071 4.69886C31.5518 5.16098 31.7336 5.68561 31.7526 6.27273H30.3889Z" fill="#ECEEEC"/>
</g>
<defs>
<clipPath id="clip0_3068_2276">
<path d="M0.200195 4C0.200195 1.79086 1.99106 0 4.2002 0H36.0002C38.2093 0 40.0002 1.79086 40.0002 4V14C40.0002 16.2091 38.2093 18 36.0002 18H4.20019C1.99105 18 0.200195 16.2091 0.200195 14V4Z" fill="white"/>
</clipPath>
</defs>
</svg>
