<svg width="16" height="16" viewBox="0 0 16 16" fill="none" xmlns="http://www.w3.org/2000/svg">
<rect width="16" height="16" fill="white" fill-opacity="0.01"/>
<path fill-rule="evenodd" clip-rule="evenodd" d="M10.6666 6.93336C10.6666 8.99523 8.99517 10.6667 6.9333 10.6667C4.87143 10.6667 3.19997 8.99523 3.19997 6.93336C3.19997 4.8715 4.87143 3.20003 6.9333 3.20003C8.99517 3.20003 10.6666 4.8715 10.6666 6.93336ZM9.9294 10.6837C9.10824 11.3406 8.06665 11.7334 6.9333 11.7334C4.28234 11.7334 2.1333 9.58433 2.1333 6.93336C2.1333 4.2824 4.28234 2.13336 6.9333 2.13336C9.58427 2.13336 11.7333 4.2824 11.7333 6.93336C11.7333 8.06671 11.3406 9.10831 10.6836 9.92946L13.7105 12.9562C13.9187 13.1645 13.9187 13.5022 13.7105 13.7105C13.5022 13.9187 13.1644 13.9187 12.9561 13.7105L9.9294 10.6837Z" fill="#020A00" fill-opacity="0.627451"/>
</svg>
