<svg width="16" height="16" viewBox="0 0 16 16" fill="none" xmlns="http://www.w3.org/2000/svg">
<rect width="16" height="16" fill="white" fill-opacity="0.01"/>
<path fill-rule="evenodd" clip-rule="evenodd" d="M5.86641 3.20003C4.98275 3.20003 4.26641 3.91637 4.26641 4.80003C4.26641 5.68369 4.98275 6.40003 5.86641 6.40003C6.75007 6.40003 7.46641 5.68369 7.46641 4.80003C7.46641 3.91637 6.75007 3.20003 5.86641 3.20003ZM3.19974 5.33336C3.21756 5.33336 3.23519 5.33249 3.25256 5.33078C3.49864 6.54926 4.57539 7.4667 5.86641 7.4667C7.15743 7.4667 8.23417 6.54926 8.48025 5.33078C8.49763 5.33249 8.51525 5.33336 8.53307 5.33336H14.3997C14.6942 5.33336 14.9331 5.09458 14.9331 4.80003C14.9331 4.50548 14.6942 4.2667 14.3997 4.2667H8.53307C8.51525 4.2667 8.49763 4.26757 8.48025 4.26928C8.23417 3.05079 7.15743 2.13336 5.86641 2.13336C4.57539 2.13336 3.49864 3.05079 3.25256 4.26928C3.23519 4.26757 3.21756 4.2667 3.19974 4.2667H1.59974C1.30519 4.2667 1.06641 4.50548 1.06641 4.80003C1.06641 5.09458 1.30519 5.33336 1.59974 5.33336H3.19974ZM12.7469 11.7308C12.5009 12.9493 11.4241 13.8667 10.1331 13.8667C8.84205 13.8667 7.76531 12.9493 7.51923 11.7308C7.50185 11.7325 7.48423 11.7334 7.46641 11.7334H1.59974C1.30519 11.7334 1.06641 11.4945 1.06641 11.2C1.06641 10.9055 1.30519 10.6667 1.59974 10.6667H7.46641C7.48423 10.6667 7.50185 10.6675 7.51923 10.6693C7.76531 9.4508 8.84205 8.53336 10.1331 8.53336C11.4241 8.53336 12.5009 9.4508 12.7469 10.6693C12.7643 10.6675 12.7819 10.6667 12.7997 10.6667H14.3997C14.6942 10.6667 14.9331 10.9055 14.9331 11.2C14.9331 11.4945 14.6942 11.7334 14.3997 11.7334H12.7997C12.7819 11.7334 12.7643 11.7325 12.7469 11.7308ZM8.53307 11.2C8.53307 10.3164 9.24941 9.60003 10.1331 9.60003C11.0167 9.60003 11.7331 10.3164 11.7331 11.2C11.7331 12.0837 11.0167 12.8 10.1331 12.8C9.24941 12.8 8.53307 12.0837 8.53307 11.2Z" fill="white"/>
</svg>
