<svg width="16" height="16" viewBox="0 0 16 16" fill="none" xmlns="http://www.w3.org/2000/svg">
<rect width="16" height="16" fill="white" fill-opacity="0.01"/>
<path fill-rule="evenodd" clip-rule="evenodd" d="M5.86689 3.20003C4.98324 3.20003 4.26689 3.91637 4.26689 4.80003C4.26689 5.68369 4.98324 6.40003 5.86689 6.40003C6.75055 6.40003 7.4669 5.68369 7.4669 4.80003C7.4669 3.91637 6.75055 3.20003 5.86689 3.20003ZM3.20023 5.33336C3.21805 5.33336 3.23567 5.33249 3.25305 5.33078C3.49913 6.54926 4.57588 7.4667 5.86689 7.4667C7.15791 7.4667 8.23466 6.54926 8.48074 5.33078C8.49812 5.33249 8.51574 5.33336 8.53356 5.33336H14.4002C14.6947 5.33336 14.9336 5.09458 14.9336 4.80003C14.9336 4.50548 14.6947 4.2667 14.4002 4.2667H8.53356C8.51574 4.2667 8.49812 4.26757 8.48074 4.26928C8.23466 3.05079 7.15791 2.13336 5.86689 2.13336C4.57588 2.13336 3.49913 3.05079 3.25305 4.26928C3.23567 4.26757 3.21805 4.2667 3.20023 4.2667H1.60023C1.30568 4.2667 1.06689 4.50548 1.06689 4.80003C1.06689 5.09458 1.30568 5.33336 1.60023 5.33336H3.20023ZM12.7474 11.7308C12.5013 12.9493 11.4245 13.8667 10.1336 13.8667C8.84254 13.8667 7.7658 12.9493 7.51972 11.7308C7.50234 11.7325 7.48472 11.7334 7.4669 11.7334H1.60023C1.30568 11.7334 1.06689 11.4945 1.06689 11.2C1.06689 10.9055 1.30568 10.6667 1.60023 10.6667H7.4669C7.48472 10.6667 7.50234 10.6675 7.51972 10.6693C7.7658 9.4508 8.84254 8.53336 10.1336 8.53336C11.4245 8.53336 12.5013 9.4508 12.7474 10.6693C12.7648 10.6675 12.7824 10.6667 12.8002 10.6667H14.4002C14.6947 10.6667 14.9336 10.9055 14.9336 11.2C14.9336 11.4945 14.6947 11.7334 14.4002 11.7334H12.8002C12.7824 11.7334 12.7648 11.7325 12.7474 11.7308ZM8.53356 11.2C8.53356 10.3164 9.2499 9.60003 10.1336 9.60003C11.0172 9.60003 11.7336 10.3164 11.7336 11.2C11.7336 12.0837 11.0172 12.8 10.1336 12.8C9.2499 12.8 8.53356 12.0837 8.53356 11.2Z" fill="#1D211C"/>
</svg>
