<svg width="16" height="16" viewBox="0 0 16 16" fill="none" xmlns="http://www.w3.org/2000/svg">
<rect width="16" height="16" fill="white" fill-opacity="0.01"/>
<path fill-rule="evenodd" clip-rule="evenodd" d="M9.07937 3.20575C9.80081 2.71565 10.713 2.70605 11.3907 3.15111C11.5446 3.25217 11.7089 3.41256 12.1482 3.85191C12.5876 4.29125 12.748 4.45559 12.849 4.60948C13.2942 5.28718 13.2846 6.19936 12.7944 6.9208C12.6825 7.08546 12.5094 7.26196 12.0539 7.71743L11.394 8.3774C11.1858 8.58567 11.1858 8.92336 11.394 9.13164C11.6023 9.33992 11.94 9.33992 12.1482 9.13164L12.8082 8.47167L12.854 8.42589C13.2483 8.03172 13.5006 7.7795 13.6768 7.52019C14.397 6.45996 14.4342 5.08 13.7407 4.02396C13.5715 3.7664 13.325 3.51999 12.9502 3.14527L12.9025 3.09766L12.8549 3.05003C12.4802 2.67518 12.2338 2.42866 11.9762 2.25952C10.9202 1.56598 9.54021 1.60317 8.47998 2.32341C8.22067 2.49956 7.96844 2.75188 7.57426 3.14616L7.5285 3.19195L6.86853 3.85191C6.66024 4.06019 6.66024 4.39788 6.86853 4.60615C7.07681 4.81443 7.4145 4.81443 7.62277 4.60615L8.28274 3.94619C8.73821 3.49072 8.91471 3.3176 9.07937 3.20575ZM4.60579 7.62314C4.81407 7.41487 4.81407 7.07717 4.60579 6.86889C4.3975 6.66062 4.05982 6.66062 3.85154 6.86889L3.19157 7.52886L3.1458 7.57463C2.75151 7.9688 2.4992 8.22103 2.32304 8.48035C1.60279 9.54058 1.56562 10.9205 2.25916 11.9766C2.4283 12.2341 2.67481 12.4805 3.04967 12.8552L3.09729 12.9029L3.1449 12.9505C3.51962 13.3253 3.76603 13.5719 4.02358 13.741C5.07964 14.4345 6.45958 14.3974 7.51982 13.6771C7.77912 13.501 8.03136 13.2486 8.42553 12.8544L8.47131 12.8086L9.13127 12.1487C9.33955 11.9403 9.33955 11.6026 9.13127 11.3944C8.92299 11.1861 8.5853 11.1861 8.37702 11.3944L7.71706 12.0544C7.26159 12.5098 7.08509 12.683 6.92044 12.7948C6.19899 13.2849 5.28682 13.2945 4.60911 12.8495C4.45523 12.7484 4.29089 12.5879 3.85154 12.1487C3.41219 11.7093 3.25181 11.5449 3.15074 11.391C2.70569 10.7134 2.71529 9.80118 3.20538 9.07973C3.31723 8.91508 3.49036 8.73858 3.94582 8.28311L4.60579 7.62314ZM10.2631 6.49126C10.4714 6.28298 10.4714 5.94529 10.2631 5.73701C10.0549 5.52873 9.71717 5.52873 9.50888 5.73701L5.73765 9.50825C5.52938 9.71653 5.52938 10.0542 5.73765 10.2625C5.94593 10.4708 6.28362 10.4708 6.4919 10.2625L10.2631 6.49126Z" fill="#020A00" fill-opacity="0.627451"/>
</svg>
