<svg width="28" height="40" viewBox="0 0 28 40" fill="none" xmlns="http://www.w3.org/2000/svg">
<rect width="28" height="40" fill="white" fill-opacity="0.01"/>
<rect width="16" height="16" transform="translate(8 14)" fill="white" fill-opacity="0.01"/>
<path fill-rule="evenodd" clip-rule="evenodd" d="M17.0799 17.2057C17.8013 16.7156 18.7135 16.706 19.3912 17.1511C19.5451 17.2522 19.7094 17.4126 20.1487 17.8519C20.5881 18.2913 20.7485 18.4556 20.8495 18.6095C21.2946 19.2872 21.285 20.1994 20.7949 20.9208C20.683 21.0855 20.5099 21.262 20.0544 21.7174L19.3945 22.3774C19.1863 22.5857 19.1863 22.9234 19.3945 23.1316C19.6028 23.3399 19.9405 23.3399 20.1487 23.1316L20.8087 22.4717L20.8545 22.4259C21.2488 22.0317 21.501 21.7795 21.6773 21.5202C22.3975 20.46 22.4347 19.08 21.7411 18.024C21.572 17.7664 21.3255 17.52 20.9506 17.1453L20.903 17.0977L20.8554 17.05C20.4807 16.6752 20.2343 16.4287 19.9767 16.2595C18.9207 15.566 17.5407 15.6032 16.4805 16.3234C16.2212 16.4996 15.9689 16.7519 15.5747 17.1462L15.529 17.1919L14.869 17.8519C14.6607 18.0602 14.6607 18.3979 14.869 18.6062C15.0773 18.8144 15.415 18.8144 15.6233 18.6062L16.2832 17.9462C16.7387 17.4907 16.9152 17.3176 17.0799 17.2057ZM12.6063 21.6231C12.8146 21.4149 12.8146 21.0772 12.6063 20.8689C12.398 20.6606 12.0603 20.6606 11.852 20.8689L11.1921 21.5289L11.1463 21.5746C10.752 21.9688 10.4997 22.221 10.3235 22.4804C9.60328 23.5406 9.56611 24.9205 10.2596 25.9766C10.4288 26.2341 10.6753 26.4805 11.0502 26.8552L11.0978 26.9029L11.1454 26.9505C11.5201 27.3253 11.7665 27.5719 12.0241 27.741C13.0801 28.4345 14.4601 28.3974 15.5203 27.6771C15.7796 27.501 16.0318 27.2486 16.426 26.8544L16.4718 26.8086L17.1318 26.1487C17.34 25.9403 17.34 25.6026 17.1318 25.3944C16.9235 25.1861 16.5858 25.1861 16.3775 25.3944L15.7175 26.0544C15.2621 26.5098 15.0856 26.683 14.9209 26.7948C14.1995 27.2849 13.2873 27.2945 12.6096 26.8495C12.4557 26.7484 12.2914 26.5879 11.852 26.1487C11.4127 25.7093 11.2523 25.5449 11.1512 25.391C10.7062 24.7134 10.7158 23.8012 11.2059 23.0797C11.3177 22.9151 11.4908 22.7386 11.9463 22.2831L12.6063 21.6231ZM18.2636 20.4913C18.4719 20.283 18.4719 19.9453 18.2636 19.737C18.0553 19.5287 17.7177 19.5287 17.5094 19.737L13.7381 23.5083C13.5299 23.7165 13.5299 24.0542 13.7381 24.2625C13.9464 24.4708 14.2841 24.4708 14.4924 24.2625L18.2636 20.4913Z" fill="#F6FEF4" fill-opacity="0.690196"/>
</svg>
